<svg id="SvgjsSvg1068" xmlns="http://www.w3.org/2000/svg" version="1.1" xmlns:xlink="http://www.w3.org/1999/xlink" xmlns:svgjs="http://svgjs.com/svgjs" width="15" height="12" viewBox="0 0 15 12"><title>Arrow-Right</title><desc>Created with Avocode.</desc><defs id="SvgjsDefs1069"></defs><path id="SvgjsPath1070" d="M362.395 2511.46L357.72299999999996 2506.79C357.38699999999994 2506.45 356.842 2506.45 356.506 2506.79C356.16999999999996 2507.13 356.16999999999996 2507.67 356.506 2508.0099999999998L359.70899999999995 2511.2099999999996H349.0439999999999C348.5679999999999 2511.2099999999996 348.18299999999994 2511.5999999999995 348.18299999999994 2512.0699999999997C348.18299999999994 2512.5499999999997 348.5679999999999 2512.93 349.0439999999999 2512.93H359.70899999999995L356.506 2516.14C356.16999999999996 2516.48 356.16999999999996 2517.02 356.506 2517.3599999999997C356.674 2517.5299999999997 356.89399999999995 2517.6099999999997 357.114 2517.6099999999997C357.334 2517.6099999999997 357.55499999999995 2517.5299999999997 357.72299999999996 2517.3599999999997L362.395 2512.68C362.556 2512.52 362.647 2512.2999999999997 362.647 2512.0699999999997C362.647 2511.8399999999997 362.556 2511.6299999999997 362.395 2511.4599999999996Z " fill="#7cc576" fill-opacity="1" transform="matrix(1,0,0,1,-348,-2506)"></path></svg>