<svg id="SvgjsSvg1050" xmlns="http://www.w3.org/2000/svg" version="1.1" xmlns:xlink="http://www.w3.org/1999/xlink" xmlns:svgjs="http://svgjs.com/svgjs" width="389" height="416" viewBox="0 0 389 416"><title>gear 2</title><desc>Created with Avocode.</desc><defs id="SvgjsDefs1051"></defs><path id="SvgjsPath1052" d="M598.304 1529.51H566.996C563.98 1540.92 559.8199999999999 1551.8 554.54 1561.94L576.491 1585.45C586.6279999999999 1596.31 586.6279999999999 1613.91 576.491 1624.76L558.137 1644.42C547.9989999999999 1655.28 531.564 1655.28 521.4259999999999 1644.42L499.47399999999993 1620.91C489.99799999999993 1626.5700000000002 479.84299999999996 1631.02 469.19199999999995 1634.25V1667.78C469.19199999999995 1683.05 457.63199999999995 1695.43 443.36899999999997 1695.43H417.54699999999997C403.28499999999997 1695.43 391.724 1683.05 391.724 1667.78V1634.25C380.687 1630.91 370.205 1626.2 360.437 1620.26L337.874 1644.42C327.737 1655.28 311.30100000000004 1655.28 301.16400000000004 1644.42L282.80800000000005 1624.76C272.67100000000005 1613.91 272.67100000000005 1596.31 282.80800000000005 1585.45L305.7660000000001 1560.8700000000001C300.75000000000006 1551.0400000000002 296.8280000000001 1540.5100000000002 293.9200000000001 1529.5100000000002H262.61300000000006C248.35000000000005 1529.5100000000002 236.79000000000005 1517.13 236.79000000000005 1501.8600000000001V1474.21C236.79000000000005 1458.93 248.35000000000005 1446.55 262.61300000000006 1446.55H293.9200000000001C296.93700000000007 1435.1499999999999 301.09600000000006 1424.27 306.37700000000007 1414.12L282.80800000000005 1388.8799999999999C272.67100000000005 1378.03 272.67100000000005 1360.4299999999998 282.80800000000005 1349.57L301.16400000000004 1329.9099999999999C311.30100000000004 1319.06 327.737 1319.06 337.874 1329.9099999999999L361.442 1355.1499999999999C370.918 1349.4999999999998 381.073 1345.04 391.724 1341.81V1308.29C391.724 1293.01 403.28499999999997 1280.6299999999999 417.54699999999997 1280.6299999999999H443.36899999999997C457.63199999999995 1280.6299999999999 469.19199999999995 1293.01 469.19199999999995 1308.29V1341.81C479.45699999999994 1344.9299999999998 489.28999999999996 1349.1299999999999 498.46799999999996 1354.5L521.4259999999999 1329.91C531.564 1319.0600000000002 547.9989999999999 1319.0600000000002 558.137 1329.91L576.491 1349.5700000000002C586.6279999999999 1360.43 586.6279999999999 1378.0300000000002 576.491 1388.88L553.928 1413.0500000000002C559.48 1423.5100000000002 563.87 1434.7300000000002 566.996 1446.5500000000002H598.304C612.567 1446.5500000000002 624.127 1458.9300000000003 624.127 1474.2100000000003V1501.8600000000004C624.127 1517.1300000000003 612.567 1529.5100000000004 598.304 1529.5100000000004ZM352.99 1488.03C352.99 1533.85 387.673 1570.99 430.458 1570.99C473.24300000000005 1570.99 507.925 1533.85 507.925 1488.03C507.925 1442.22 473.243 1405.07 430.458 1405.07C387.673 1405.07 352.99 1442.22 352.99 1488.03ZM430.458 1446.55C451.851 1446.55 469.192 1465.12 469.192 1488.03C469.192 1510.94 451.851 1529.51 430.458 1529.51C409.06600000000003 1529.51 391.72400000000005 1510.94 391.72400000000005 1488.03C391.72400000000005 1465.12 409.06600000000003 1446.55 430.458 1446.55Z " fill="#ffffff" fill-opacity="1" transform="matrix(1,0,0,1,-236,-1280)"></path></svg>