<svg id="SvgjsSvg1000" xmlns="http://www.w3.org/2000/svg" version="1.1" xmlns:xlink="http://www.w3.org/1999/xlink" xmlns:svgjs="http://svgjs.com/svgjs" width="47" height="47" viewBox="0 0 47 47"><title>Icon-Music</title><desc>Created with Avocode.</desc><defs id="SvgjsDefs1001"></defs><path id="SvgjsPath1007" d="M389.633 2898.34C389.637 2897.7200000000003 389.35999999999996 2897.1200000000003 388.878 2896.73C388.39599999999996 2896.34 387.762 2896.19 387.154 2896.32L360.195 2902.0800000000004C359.255 2902.28 358.581 2903.1100000000006 358.574 2904.07L358.38800000000003 2928.2200000000003C356.886 2927.3300000000004 355.067 2926.8 353.103 2926.78H353.016C347.88300000000004 2926.78 343.68 2930.3500000000004 343.64700000000005 2934.73C343.61300000000006 2939.15 347.80000000000007 2942.79 352.9800000000001 2942.83H353.0660000000001C358.19900000000007 2942.83 362.4030000000001 2939.2599999999998 362.43700000000007 2934.88L362.59900000000005 2913.82L385.45200000000006 2908.9300000000003L385.34800000000007 2922.4600000000005C383.8450000000001 2921.5700000000006 382.02600000000007 2921.0300000000007 380.06200000000007 2921.0200000000004H379.9750000000001C374.8420000000001 2921.0200000000004 370.6380000000001 2924.5800000000004 370.6050000000001 2928.9700000000003C370.5710000000001 2933.3900000000003 374.75900000000007 2937.0200000000004 379.9390000000001 2937.0600000000004H380.02400000000006C384.75800000000004 2937.0600000000004 388.69300000000004 2934.03 389.30600000000004 2930.1200000000003C389.357 2929.9400000000005 389.39200000000005 2929.76 389.39400000000006 2929.57ZM353.066 2938.72H353.01099999999997C350.14099999999996 2938.7 347.72999999999996 2936.89 347.746 2934.7599999999998C347.762 2932.62 350.12699999999995 2930.8799999999997 353.01599999999996 2930.8799999999997H353.07099999999997C355.94199999999995 2930.91 358.354 2932.72 358.33799999999997 2934.8499999999995C358.32099999999997 2936.9799999999996 355.95599999999996 2938.7199999999993 353.066 2938.7199999999993ZM362.623 2910.67L362.661 2905.75L385.513 2900.86L385.476 2905.78ZM380.024 2932.96H379.97C377.1 2932.94 374.689 2931.12 374.70500000000004 2929C374.72100000000006 2926.86 377.08500000000004 2925.12 379.975 2925.12H380.03000000000003C382.90200000000004 2925.14 385.31300000000005 2926.96 385.297 2929.08C385.281 2931.22 382.91600000000005 2932.96 380.024 2932.96Z " fill="#777777" fill-opacity="1" transform="matrix(1,0,0,1,-343,-2896)"></path></svg>