<svg id="SvgjsSvg1023" xmlns="http://www.w3.org/2000/svg" version="1.1" xmlns:xlink="http://www.w3.org/1999/xlink" xmlns:svgjs="http://svgjs.com/svgjs" width="55" height="44" viewBox="0 0 55 44"><title>Icon - Graph</title><desc>Created with Avocode.</desc><defs id="SvgjsDefs1024"></defs><path id="SvgjsPath1025" d="M1007.54 942.276C1006.98 942.276 1006.42 942.1279999999999 1005.91 941.819C1004.42 940.9169999999999 1003.9399999999999 938.976 1004.8399999999999 937.485L1012.0799999999999 925.53C1012.6199999999999 924.629 1013.5799999999999 924.059 1014.6299999999999 924.011C1015.6699999999998 923.963 1016.6899999999998 924.443 1017.3199999999999 925.2919999999999L1020.26 929.276L1026.68 918.5219999999999C1027.22 917.621 1028.17 917.0469999999999 1029.22 916.9899999999999C1030.28 916.9329999999999 1031.27 917.3989999999999 1031.91 918.2339999999999L1037.48 925.583L1052.3600000000001 901.233C1053.2700000000002 899.7449999999999 1055.21 899.276 1056.7 900.1859999999999C1058.19 901.0949999999999 1058.65 903.0369999999999 1057.75 904.5239999999999L1040.45 932.8219999999999C1039.91 933.7129999999999 1038.96 934.2769999999999 1037.92 934.3279999999999C1036.89 934.3829999999998 1035.8700000000001 933.9149999999998 1035.24 933.0829999999999L1029.7 925.7729999999999L1023.24 936.5859999999999C1022.7 937.4929999999999 1021.74 938.0689999999998 1020.6800000000001 938.1189999999999C1019.6400000000001 938.1779999999999 1018.6200000000001 937.6909999999999 1017.99 936.8399999999999L1015.04 932.8319999999999L1010.24 940.7529999999999C1009.65 941.7339999999999 1008.61 942.276 1007.54 942.276Z " fill="#000000" fill-opacity="1" transform="matrix(1,0,0,1,-1004,-899)"></path></svg>