<svg id="SvgjsSvg1008" xmlns="http://www.w3.org/2000/svg" version="1.1" xmlns:xlink="http://www.w3.org/1999/xlink" xmlns:svgjs="http://svgjs.com/svgjs" width="35" height="47" viewBox="0 0 35 47"><title>Icon-Graph</title><desc>Created with Avocode.</desc><defs id="SvgjsDefs1009"></defs><path id="SvgjsPath1010" d="M713.128 2893.24C711.144 2893.24 709.5350000000001 2894.8399999999997 709.5350000000001 2896.8199999999997V2935.5499999999997C709.5350000000001 2937.5299999999997 711.1440000000001 2939.14 713.128 2939.14C715.113 2939.14 716.721 2937.5299999999997 716.721 2935.5499999999997V2896.8199999999997C716.721 2894.8399999999997 715.113 2893.24 713.128 2893.24ZM699.678 2906.02C697.694 2906.02 696.085 2907.62 696.085 2909.6V2935.5499999999997C696.085 2937.5299999999997 697.6940000000001 2939.14 699.678 2939.14C701.663 2939.14 703.271 2937.5299999999997 703.271 2935.5499999999997V2909.6C703.271 2907.62 701.663 2906.02 699.678 2906.02ZM686.225 2918.8C684.241 2918.8 682.6320000000001 2920.4 682.6320000000001 2922.38V2935.55C682.6320000000001 2937.53 684.2410000000001 2939.1400000000003 686.225 2939.1400000000003C688.21 2939.1400000000003 689.818 2937.53 689.818 2935.55V2922.38C689.818 2920.4 688.21 2918.8 686.225 2918.8Z " fill="#777777" fill-opacity="1" transform="matrix(1,0,0,1,-682,-2893)"></path></svg>