<svg id="SvgjsSvg1014" xmlns="http://www.w3.org/2000/svg" version="1.1" xmlns:xlink="http://www.w3.org/1999/xlink" xmlns:svgjs="http://svgjs.com/svgjs" width="54" height="48" viewBox="0 0 54 48"><title>Icon - Heart</title><desc>Created with Avocode.</desc><defs id="SvgjsDefs1015"></defs><path id="SvgjsPath1016" d="M394.735 908.776C392.278 903.2769999999999 387.062 899.723 381.447 899.723C375.758 899.723 372.105 902.251 369.985 904.949C367.866 902.251 364.213 899.723 358.524 899.723C352.909 899.723 347.692 903.2769999999999 345.236 908.776C342.697 914.4609999999999 343.816 920.7909999999999 348.231 925.707C358.918 937.614 368.36199999999997 946.054 368.456 946.138C368.892 946.5260000000001 369.439 946.72 369.985 946.72C370.53200000000004 946.72 371.079 946.5260000000001 371.515 946.138C371.609 946.0540000000001 381.053 937.614 391.74 925.707C396.15500000000003 920.7909999999999 397.274 914.461 394.735 908.776ZM388.319 922.64C380.32300000000004 931.547 373.047 938.472 369.985 941.31C366.923 938.472 359.648 931.5469999999999 351.65200000000004 922.64C348.43800000000005 919.059 347.629 914.689 349.434 910.649C351.125 906.861 354.778 904.316 358.524 904.316C365.931 904.316 367.592 909.818 367.753 910.427C368.005 911.4540000000001 368.92699999999996 912.177 369.985 912.177C371.04400000000004 912.177 371.966 911.4540000000001 372.218 910.427C372.279 910.177 373.802 904.316 381.447 904.316C385.193 904.316 388.845 906.861 390.537 910.649C392.342 914.689 391.53299999999996 919.059 388.31899999999996 922.64ZM381.423 906.82C380.162 906.6450000000001 379.007 907.529 378.836 908.7850000000001C378.664 910.041 379.545 911.1990000000001 380.803 911.3710000000001C380.923 911.3870000000001 383.752 911.8180000000001 384.021 915.8600000000001C384.10200000000003 917.0740000000002 385.112 918.0040000000001 386.312 918.0040000000001C386.363 918.0040000000001 386.415 918.0030000000002 386.467 918.0000000000001C387.733 917.9150000000001 388.692 916.8210000000001 388.608 915.5550000000001C388.196 909.363 383.728 907.133 381.423 906.82ZM383.531 918.997C382.927 918.997 382.335 919.2439999999999 381.90500000000003 919.669C381.47900000000004 920.093 381.232 920.685 381.232 921.294C381.232 921.896 381.47900000000004 922.4879999999999 381.90500000000003 922.918C382.33500000000004 923.343 382.927 923.591 383.531 923.591C384.134 923.591 384.726 923.343 385.157 922.918C385.582 922.488 385.829 921.896 385.829 921.294C385.829 920.685 385.582 920.093 385.157 919.669C384.726 919.244 384.13399999999996 918.997 383.531 918.997Z " fill="#000000" fill-opacity="1" transform="matrix(1,0,0,1,-343,-899)"></path></svg>