<svg id="SvgjsSvg1020" xmlns="http://www.w3.org/2000/svg" version="1.1" xmlns:xlink="http://www.w3.org/1999/xlink" xmlns:svgjs="http://svgjs.com/svgjs" width="40" height="52" viewBox="0 0 40 52"><title>Icon - Mobile</title><defs id="SvgjsDefs1021"></defs><path id="SvgjsPath1022" d="M715.155 899.729H684.674C682.0609999999999 899.729 680.374 901.3430000000001 680.374 903.841V946.278C680.374 948.7760000000001 682.061 950.39 684.674 950.39H715.155C717.7669999999999 950.39 719.4549999999999 948.776 719.4549999999999 946.278V903.841C719.4549999999999 901.343 717.7669999999999 899.729 715.155 899.729ZM716.17 946.278C716.17 946.738 716.17 947.1 715.155 947.1H684.674C683.658 947.1 683.658 946.738 683.658 946.278V903.841C683.658 903.3820000000001 683.658 903.019 684.674 903.019H715.155C716.17 903.019 716.17 903.3820000000001 716.17 903.841ZM712.963 905.664H686.866C686.261 905.664 685.771 906.156 685.771 906.76V939.881C685.771 940.487 686.261 940.978 686.866 940.978H712.963C713.567 940.978 714.058 940.487 714.058 939.881V906.76C714.058 906.156 713.567 905.664 712.963 905.664ZM711.868 938.785H687.961V907.857H711.868ZM698.558 942.743C698.202 943.099 697.999 943.5930000000001 697.999 944.1030000000001C697.999 944.6070000000001 698.202 945.1010000000001 698.558 945.4580000000001C698.914 945.8130000000001 699.407 946.022 699.915 946.022C700.419 946.022 700.9119999999999 945.8130000000001 701.2679999999999 945.4580000000001C701.6239999999999 945.1010000000001 701.8319999999999 944.6070000000001 701.8319999999999 944.1030000000001C701.8319999999999 943.5980000000001 701.6239999999999 943.099 701.2679999999999 942.743C700.5559999999999 942.0310000000001 699.2699999999999 942.0310000000001 698.5579999999999 942.743Z " fill="#000000" fill-opacity="1" transform="matrix(1,0,0,1,-680,-899)"></path></svg>
