<svg id="SvgjsSvg1065" xmlns="http://www.w3.org/2000/svg" version="1.1" xmlns:xlink="http://www.w3.org/1999/xlink" xmlns:svgjs="http://svgjs.com/svgjs" width="29" height="39" viewBox="0 0 29 39"><title>Icon-Locked</title><defs id="SvgjsDefs1066"></defs><path id="SvgjsPath1067" d="M267.968 2368.77C273.122 2368.77 277.30100000000004 2372.43 277.30100000000004 2376.94V2386.27H278.46700000000004C280.40000000000003 2386.27 281.96700000000004 2387.84 281.96700000000004 2389.77V2402.6C281.96700000000004 2404.54 280.40000000000003 2406.1 278.46700000000004 2406.1H257.468C255.53500000000003 2406.1 253.96900000000002 2404.54 253.96900000000002 2402.6V2389.77C253.96900000000002 2387.84 255.53500000000003 2386.27 257.468 2386.27H258.635V2376.94C258.635 2372.43 262.81399999999996 2368.77 267.968 2368.77ZM263.301 2376.94V2385.11C263.301 2385.5163900000002 263.39367 2385.9068300000004 263.56404 2386.27L272.37108 2386.27C272.54138 2385.90683 272.634 2385.51639 272.634 2385.11V2376.94C272.634 2375.01 270.545 2373.44 267.968 2373.44C265.391 2373.44 263.30100000000004 2375.01 263.30100000000004 2376.94ZM265.635 2400.27C265.635 2401.56 266.679 2402.6 267.968 2402.6C269.257 2402.6 270.30100000000004 2401.56 270.30100000000004 2400.27L270.30100000000004 2398.47797C271.69568000000004 2397.67366 272.63400000000007 2396.16912 272.63400000000007 2394.44C272.63400000000007 2391.86 270.5450000000001 2389.77 267.9680000000001 2389.77C265.3910000000001 2389.77 263.3010000000001 2391.86 263.3010000000001 2394.44C263.3010000000001 2396.16923 264.2398800000001 2397.67384 265.6350000000001 2398.47812Z " fill="#000000" fill-opacity="1" transform="matrix(1,0,0,1,-253,-2368)"></path></svg>
