<svg id="SvgjsSvg1062" xmlns="http://www.w3.org/2000/svg" version="1.1" xmlns:xlink="http://www.w3.org/1999/xlink" xmlns:svgjs="http://svgjs.com/svgjs" width="41" height="34" viewBox="0 0 41 34"><title>Icon-Laptop</title><defs id="SvgjsDefs1063"></defs><path id="SvgjsPath1064" d="M253.914 2283.18H280.82099999999997C283.04999999999995 2283.18 284.85699999999997 2284.99 284.85699999999997 2287.22V2304.7099999999996C284.85699999999997 2305.3052 284.72826999999995 2305.8704799999996 284.49715 2306.3794C284.80568 2306.6541399999996 285 2307.05437 285 2307.5C285 2308.32843 284.32843 2309 283.5 2309H282.5C282.15037 2309 281.82868 2308.88038 281.57362 2308.67984C281.32978 2308.7259 281.0782 2308.75 280.821 2308.75H280.59788000000003C280.85547 2308.2214 281.00000000000006 2307.62758 281.00000000000006 2307V2291C281.00000000000006 2288.79086 279.20914000000005 2287 277.00000000000006 2287H258.00000000000006C255.79086000000007 2287 254.00000000000006 2288.79086 254.00000000000006 2291V2307C254.00000000000006 2307.62758 254.14453000000006 2308.2214 254.40212000000005 2308.75H253.91400000000004C253.73295000000005 2308.75 253.55468000000005 2308.73806 253.37994000000003 2308.71492C253.13277000000002 2308.89425 252.82873000000004 2309 252.50000000000003 2309H251.50000000000003C250.67157000000003 2309 250.00000000000003 2308.32843 250.00000000000003 2307.5C250.00000000000003 2307.14609 250.12257000000002 2306.8208 250.32757000000004 2306.56428C250.04028000000002 2306.00885 249.87800000000004 2305.37828 249.87800000000004 2304.71V2287.2200000000003C249.87800000000004 2284.9900000000002 251.68500000000003 2283.1800000000003 253.91400000000004 2283.1800000000003ZM249.878 2311.44H284.85699999999997C286.34299999999996 2311.44 287.54799999999994 2312.64 287.54799999999994 2314.13C287.54799999999994 2315.61 284.99799999999993 2316.82 283.51199999999994 2316.82H251.22299999999996C249.73699999999997 2316.82 247.18699999999995 2315.61 247.18699999999995 2314.13C247.18699999999995 2312.6400000000003 248.39199999999997 2311.44 249.87799999999996 2311.44ZM261.986 2314.8C261.986 2315.17 262.58799999999997 2315.4700000000003 263.332 2315.4700000000003H271.404C272.147 2315.4700000000003 272.749 2315.17 272.749 2314.8C272.749 2314.4300000000003 272.14700000000005 2314.13 271.404 2314.13H263.332C262.58799999999997 2314.13 261.986 2314.4300000000003 261.986 2314.8ZM258.334 2298.97L260.228 2297.06C260.75100000000003 2296.54 261.599 2296.54 262.122 2297.06L264.60484 2299.55542L272.608 2291.52C273.13100000000003 2290.99 273.979 2290.99 274.502 2291.52L276.396 2293.42C276.91900000000004 2293.9500000000003 276.91900000000004 2294.8 276.396 2295.33L265.978 2305.79C265.52956 2306.24444 264.84218 2306.30923 264.32561 2305.98436C263.88891 2306.08672 263.41056 2305.96861 263.07 2305.63L258.334 2300.87C257.811 2300.3399999999997 257.811 2299.49 258.334 2298.97Z " fill="#000000" fill-opacity="1" transform="matrix(1,0,0,1,-247,-2283)"></path></svg>
