<svg id="SvgjsSvg1059" xmlns="http://www.w3.org/2000/svg" version="1.1" xmlns:xlink="http://www.w3.org/1999/xlink" xmlns:svgjs="http://svgjs.com/svgjs" width="39" height="40" viewBox="0 0 39 40"><title>Icon-Basket</title><defs id="SvgjsDefs1060"></defs><path id="SvgjsPath1061" d="M247.174 2205.57C247.174 2203.67 248.715 2202.13 250.616 2202.13H254.50093C254.56196 2201.91068 254.65153 2201.6956600000003 254.77100000000002 2201.4900000000002L258.901 2194.3300000000004C259.661 2193.0200000000004 261.345 2192.5600000000004 262.66200000000003 2193.32C263.97900000000004 2194.09 264.43 2195.77 263.67 2197.09L260.75878 2202.13L272.13721 2202.13L269.22598999999997 2197.09C268.46498999999994 2195.77 268.91698999999994 2194.09 270.23398999999995 2193.32C271.5499899999999 2192.56 273.23398999999995 2193.02 273.99499 2194.3300000000004L278.12498999999997 2201.4900000000002C278.24429999999995 2201.6956600000003 278.33376999999996 2201.9106800000004 278.39471999999995 2202.13H282.27898999999996C284.17999 2202.13 285.72099 2203.67 285.72099 2205.57C285.72099 2207.3810700000004 284.32086999999996 2208.8650500000003 282.54342999999994 2209H250.35154999999995C248.57410999999993 2208.86505 247.17398999999995 2207.38107 247.17398999999995 2205.57ZM281.697 2231.04H251.199L249.98512000000002 2210H282.91089ZM265.071 2217.27V2225.53C265.071 2226.2900000000004 265.687 2226.9100000000003 266.44800000000004 2226.9100000000003C267.208 2226.9100000000003 267.824 2226.2900000000004 267.824 2225.53V2217.27C267.824 2216.5099999999998 267.208 2215.9 266.44800000000004 2215.9C265.687 2215.9 265.071 2216.51 265.071 2217.27ZM273.331 2217.27V2225.53C273.331 2226.2900000000004 273.947 2226.9100000000003 274.708 2226.9100000000003C275.468 2226.9100000000003 276.084 2226.2900000000004 276.084 2225.53V2217.27C276.084 2216.5099999999998 275.468 2215.9 274.708 2215.9C273.947 2215.9 273.331 2216.51 273.331 2217.27ZM256.811 2217.27V2225.53C256.811 2226.2900000000004 257.42699999999996 2226.9100000000003 258.188 2226.9100000000003C258.948 2226.9100000000003 259.56399999999996 2226.2900000000004 259.56399999999996 2225.53V2217.27C259.56399999999996 2216.5099999999998 258.948 2215.9 258.188 2215.9C257.42699999999996 2215.9 256.811 2216.51 256.811 2217.27Z " fill="#000000" fill-opacity="1" transform="matrix(1,0,0,1,-247,-2192)"></path></svg>
