<svg id="SvgjsSvg1011" xmlns="http://www.w3.org/2000/svg" version="1.1" xmlns:xlink="http://www.w3.org/1999/xlink" xmlns:svgjs="http://svgjs.com/svgjs" width="50" height="48" viewBox="0 0 50 48"><title>Icon-Star</title><defs id="SvgjsDefs1012"></defs><path id="SvgjsPath1013" d="M1046.25 2943.08C1045.84 2943.08 1045.43 2942.97 1045.07 2942.73L1032.3999999999999 2934.5L1019.7199999999999 2942.73C1018.9599999999999 2943.22 1017.9799999999999 2943.2 1017.2499999999999 2942.66C1016.5299999999999 2942.12 1016.2099999999999 2941.19 1016.4499999999999 2940.3199999999997L1020.42 2926.22L1008.5699999999999 2916.18C1007.9 2915.6099999999997 1007.64 2914.69 1007.91 2913.85C1008.18 2913.02 1008.9399999999999 2912.43 1009.8199999999999 2912.36L1024.03 2911.34L1030.42 2897.32C1030.78 2896.55 1031.5500000000002 2896.05 1032.4 2896.05C1033.24 2896.05 1034.01 2896.55 1034.3700000000001 2897.32L1040.7600000000002 2911.34L1054.9700000000003 2912.36C1055.8500000000004 2912.4300000000003 1056.6100000000004 2913.02 1056.8800000000003 2913.85C1057.1500000000003 2914.69 1056.8900000000003 2915.61 1056.2200000000003 2916.18L1044.3700000000003 2926.22L1048.3400000000004 2940.3199999999997C1048.5800000000004 2941.1899999999996 1048.2700000000004 2942.12 1047.5400000000004 2942.66C1047.1600000000003 2942.94 1046.7100000000005 2943.08 1046.2500000000005 2943.08ZM1032.4 2929.75C1032.8100000000002 2929.75 1033.22 2929.86 1033.5700000000002 2930.1L1042.6100000000001 2935.96L1039.8200000000002 2926.05C1039.5900000000001 2925.2400000000002 1039.8600000000001 2924.36 1040.5000000000002 2923.8100000000004L1049.3600000000001 2916.3100000000004L1039.17 2915.5700000000006C1038.38 2915.5200000000004 1037.68 2915.0300000000007 1037.3500000000001 2914.3100000000004L1032.4 2903.4400000000005L1027.44 2914.3100000000004C1027.1100000000001 2915.03 1026.41 2915.5200000000004 1025.6200000000001 2915.5700000000006L1015.4300000000001 2916.3100000000004L1024.29 2923.8100000000004C1024.93 2924.3600000000006 1025.2 2925.2400000000002 1024.97 2926.05L1022.1800000000001 2935.96L1031.22 2930.1C1031.57 2929.86 1031.98 2929.75 1032.4 2929.75Z " fill="#777777" fill-opacity="1" transform="matrix(1,0,0,1,-1007,-2896)"></path></svg>
