<svg xmlns="http://www.w3.org/2000/svg">
    <symbol id="icon-arrow-right" viewBox="0 0 15 12">
       <title> Arrow-Right </title> <path d="M14.395 5.46L9.723.79a.854.854 0 0 0-1.217 0 .864.864 0 0 0 0 1.22l3.203 3.2H1.044a.863.863 0 0 0-.861.86c0 .48.385.86.861.86h10.665l-3.203 3.21a.864.864 0 0 0 0 1.22c.168.17.388.25.608.25.22 0 .441-.08.609-.25l4.672-4.68a.86.86 0 0 0 0-1.22z"/>
    </symbol>
    <symbol id="icon-checkmark" viewBox="0 0 17 12">
       <title> Checkmark-1 </title> <path d="M6.339 11.68c-.264 0-.528-.1-.73-.3L1.294 7.07a1.033 1.033 0 0 1 0-1.46 1.04 1.04 0 0 1 1.461 0l3.584 3.58 8.59-8.58a1.02 1.02 0 0 1 1.46 0c.404.4.404 1.05 0 1.46L7.07 11.38c-.202.2-.466.3-.731.3z"/>
    </symbol>
    <symbol id="icon-email" viewBox="0 0 23.156 15.94">
        <path id="email" class="cls-1" d="M229.93 4653.96l7.241-6.52 4.345 3.62 4.345-3.62 7.241 6.52H229.93zm23.172-12.31l-6.517 5.06 6.517 5.8v-10.86zm-23.172 0l6.517 5.06-6.517 5.8v-10.86zm0-3.62v2.17l11.586 9.41 11.586-9.41v-2.17H229.93z" transform="translate(-229.938 -4638.03)"/>
    </symbol>
    <symbol id="icon-gear" viewBox="0 0 389 416">
       <title> gear 2 </title> <path d="M362.304 249.51h-31.308c-3.016 11.41-7.176 22.29-12.456 32.43l21.951 23.51c10.137 10.86 10.137 28.46 0 39.31l-18.354 19.66c-10.138 10.86-26.573 10.86-36.711 0l-21.952-23.51c-9.476 5.66-19.631 10.11-30.282 13.34v33.53c0 15.27-11.56 27.65-25.823 27.65h-25.822c-14.262 0-25.823-12.38-25.823-27.65v-33.53a135.948 135.948 0 0 1-31.287-13.99l-22.563 24.16c-10.137 10.86-26.573 10.86-36.71 0l-18.356-19.66c-10.137-10.85-10.137-28.45 0-39.31l22.958-24.58c-5.016-9.83-8.938-20.36-11.846-31.36H26.613C12.35 249.51.79 237.13.79 221.86v-27.65c0-15.28 11.56-27.66 25.823-27.66H57.92c3.017-11.4 7.176-22.28 12.457-32.43l-23.569-25.24c-10.137-10.85-10.137-28.45 0-39.31l18.356-19.66c10.137-10.85 26.573-10.85 36.71 0l23.568 25.24c9.476-5.65 19.631-10.11 30.282-13.34V28.29c0-15.28 11.561-27.66 25.823-27.66h25.822c14.263 0 25.823 12.38 25.823 27.66v33.52c10.265 3.12 20.098 7.32 29.276 12.69l22.958-24.59c10.138-10.85 26.573-10.85 36.711 0l18.354 19.66c10.137 10.86 10.137 28.46 0 39.31l-22.563 24.17c5.552 10.46 9.942 21.68 13.068 33.5h31.308c14.263 0 25.823 12.38 25.823 27.66v27.65c0 15.27-11.56 27.65-25.823 27.65zM116.99 208.03c0 45.82 34.683 82.96 77.468 82.96 42.785 0 77.467-37.14 77.467-82.96 0-45.81-34.682-82.96-77.467-82.96s-77.468 37.15-77.468 82.96zm77.468-41.48c21.393 0 38.734 18.57 38.734 41.48 0 22.91-17.341 41.48-38.734 41.48-21.392 0-38.734-18.57-38.734-41.48 0-22.91 17.342-41.48 38.734-41.48z"/>
    </symbol>
    <symbol id="icon-icon-heart" viewBox="0 0 54 48">
       <title> Icon - Heart </title> <path d="M51.735 9.776C49.278 4.277 44.062.723 38.447.723c-5.689 0-9.342 2.528-11.462 5.226C24.866 3.251 21.213.723 15.524.723 9.909.723 4.692 4.277 2.236 9.776-.303 15.461.816 21.791 5.231 26.707c10.687 11.907 20.131 20.347 20.225 20.431a2.296 2.296 0 0 0 3.059 0c.094-.084 9.538-8.524 20.225-20.431 4.415-4.916 5.534-11.246 2.995-16.931zM45.319 23.64c-7.996 8.907-15.272 15.832-18.334 18.67-3.062-2.838-10.337-9.763-18.333-18.67-3.214-3.581-4.023-7.951-2.218-11.991 1.691-3.788 5.344-6.333 9.09-6.333 7.407 0 9.068 5.502 9.229 6.111a2.299 2.299 0 0 0 4.465 0c.061-.25 1.584-6.111 9.229-6.111 3.746 0 7.398 2.545 9.09 6.333 1.805 4.04.996 8.41-2.218 11.991zM38.423 7.82a2.297 2.297 0 0 0-.62 4.551c.12.016 2.949.447 3.218 4.489A2.297 2.297 0 0 0 43.467 19a2.3 2.3 0 0 0 2.141-2.445c-.412-6.192-4.88-8.422-7.185-8.735zm2.108 12.177c-.604 0-1.196.247-1.626.672a2.308 2.308 0 0 0-.673 1.625c0 .602.247 1.194.673 1.624.43.425 1.022.673 1.626.673.603 0 1.195-.248 1.626-.673.425-.43.672-1.022.672-1.624 0-.609-.247-1.201-.672-1.625a2.337 2.337 0 0 0-1.626-.672z"/>
    </symbol>
    <symbol id="icon-icon-phone" viewBox="0 0 40 52">
       <title> Icon - Mobile </title> <path d="M35.155.729H4.674c-2.613 0-4.3 1.614-4.3 4.112v42.437c0 2.498 1.687 4.112 4.3 4.112h30.481c2.612 0 4.3-1.614 4.3-4.112V4.841c0-2.498-1.688-4.112-4.3-4.112zm1.015 46.549c0 .46 0 .822-1.015.822H4.674c-1.016 0-1.016-.362-1.016-.822V4.841c0-.459 0-.822 1.016-.822h30.481c1.015 0 1.015.363 1.015.822zM32.963 6.664H6.866c-.605 0-1.095.492-1.095 1.096v33.121c0 .606.49 1.097 1.095 1.097h26.097c.604 0 1.095-.491 1.095-1.097V7.76c0-.604-.491-1.096-1.095-1.096zm-1.095 33.121H7.961V8.857h23.907zm-13.31 3.958a1.931 1.931 0 0 0 0 2.715c.356.355.849.564 1.357.564.504 0 .997-.209 1.353-.564.356-.357.564-.851.564-1.355 0-.505-.208-1.004-.564-1.36-.712-.712-1.998-.712-2.71 0z"/>
    </symbol>
    <symbol id="icon-icon-basket" viewBox="0 0 39 40">
       <title> Icon-Basket </title> <path d="M.174 13.57a3.44 3.44 0 0 1 3.442-3.44h3.885c.061-.22.15-.434.27-.64l4.13-7.16a2.76 2.76 0 0 1 3.761-1.01 2.765 2.765 0 0 1 1.008 3.77l-2.911 5.04h11.378l-2.911-5.04c-.761-1.32-.309-3 1.008-3.77 1.316-.76 3-.3 3.761 1.01l4.13 7.16c.12.206.209.42.27.64h3.884a3.44 3.44 0 0 1 .264 6.87H3.352a3.441 3.441 0 0 1-3.178-3.43zm34.523 25.47H4.199L2.985 18h32.926zM18.071 25.27v8.26c0 .76.616 1.38 1.377 1.38.76 0 1.376-.62 1.376-1.38v-8.26c0-.76-.616-1.37-1.376-1.37-.761 0-1.377.61-1.377 1.37zm8.26 0v8.26c0 .76.616 1.38 1.377 1.38.76 0 1.376-.62 1.376-1.38v-8.26c0-.76-.616-1.37-1.376-1.37-.761 0-1.377.61-1.377 1.37zm-16.52 0v8.26c0 .76.616 1.38 1.377 1.38.76 0 1.376-.62 1.376-1.38v-8.26c0-.76-.616-1.37-1.376-1.37-.761 0-1.377.61-1.377 1.37z"/>
    </symbol>
    <symbol id="icon-icon-graph" viewBox="0 0 35 47">
       <title> Icon-Graph </title> <path d="M31.128.24a3.585 3.585 0 0 0-3.593 3.58v38.73a3.593 3.593 0 0 0 7.186 0V3.82c0-1.98-1.608-3.58-3.593-3.58zm-13.45 12.78a3.585 3.585 0 0 0-3.593 3.58v25.95a3.593 3.593 0 0 0 7.186 0V16.6c0-1.98-1.608-3.58-3.593-3.58zM4.225 25.8a3.585 3.585 0 0 0-3.593 3.58v13.17a3.593 3.593 0 0 0 7.186 0V29.38c0-1.98-1.608-3.58-3.593-3.58z"/>
    </symbol>
    <symbol id="icon-icon-laptop" viewBox="0 0 41 34">
       <title> Icon-Laptop </title> <path d="M6.914.18h26.907a4.039 4.039 0 0 1 4.036 4.04v17.49c0 .595-.129 1.16-.36 1.67A1.5 1.5 0 0 1 36.5 26h-1c-.35 0-.671-.12-.926-.32-.244.046-.496.07-.753.07h-.223A3.984 3.984 0 0 0 34 24V8a4 4 0 0 0-4-4H11a4 4 0 0 0-4 4v16c0 .628.145 1.221.402 1.75h-.488c-.181 0-.36-.012-.534-.035-.247.18-.551.285-.88.285h-1a1.5 1.5 0 0 1-1.172-2.436 4.025 4.025 0 0 1-.45-1.854V4.22c0-2.23 1.807-4.04 4.036-4.04zM2.878 28.44h34.979c1.486 0 2.691 1.2 2.691 2.69 0 1.48-2.55 2.69-4.036 2.69H4.223c-1.486 0-4.036-1.21-4.036-2.69 0-1.49 1.205-2.69 2.691-2.69zm12.108 3.36c0 .37.602.67 1.346.67h8.072c.743 0 1.345-.3 1.345-.67 0-.37-.602-.67-1.345-.67h-8.072c-.744 0-1.346.3-1.346.67zm-3.652-15.83l1.894-1.91a1.345 1.345 0 0 1 1.894 0l2.483 2.495 8.003-8.035a1.327 1.327 0 0 1 1.894 0l1.894 1.9c.523.53.523 1.38 0 1.91L18.978 22.79a1.327 1.327 0 0 1-1.652.194 1.344 1.344 0 0 1-1.256-.354l-4.736-4.76a1.347 1.347 0 0 1 0-1.9z"/>
    </symbol>
    <symbol id="icon-icon-locked" viewBox="0 0 29 39">
       <title> Icon-Locked </title> <path d="M14.968.77c5.154 0 9.333 3.66 9.333 8.17v9.33h1.166c1.933 0 3.5 1.57 3.5 3.5V34.6c0 1.94-1.567 3.5-3.5 3.5H4.468a3.495 3.495 0 0 1-3.499-3.5V21.77c0-1.93 1.566-3.5 3.499-3.5h1.167V8.94c0-4.51 4.179-8.17 9.333-8.17zm-4.667 8.17v8.17c0 .406.093.797.263 1.16h8.807c.17-.363.263-.754.263-1.16V8.94c0-1.93-2.089-3.5-4.666-3.5-2.577 0-4.667 1.57-4.667 3.5zm2.334 23.33a2.33 2.33 0 0 0 2.333 2.33 2.33 2.33 0 0 0 2.333-2.33v-1.792a4.667 4.667 0 1 0-4.666 0z"/>
    </symbol>
    <symbol id="icon-icon-menu-close" viewBox="0 0 20.514 20.512">
       <path d="M20.513 1.414L19.099 0l-8.843 8.842L1.414 0 0 1.414l8.842 8.842L0 19.098l1.414 1.414 8.842-8.842 8.843 8.842 1.414-1.414-8.842-8.842z"/>
    </symbol>
    <symbol id="icon-icon-menu-open" viewBox="0 0 19.958 14">
       <path d="M0 0h19.958v2H0zM0 6h19.958v2H0zM0 12h19.958v2H0z"/>
    </symbol>
    <symbol id="icon-icon-music" viewBox="0 0 47 47">
       <title> Icon-Music </title> <path d="M46.633 2.34a2.061 2.061 0 0 0-.755-1.61 2.057 2.057 0 0 0-1.724-.41L17.195 6.08a2.05 2.05 0 0 0-1.621 1.99l-.186 24.15c-1.502-.89-3.321-1.42-5.285-1.44h-.087c-5.133 0-9.336 3.57-9.369 7.95-.034 4.42 4.153 8.06 9.333 8.1h.086c5.133 0 9.337-3.57 9.371-7.95l.162-21.06 22.853-4.89-.104 13.53a10.486 10.486 0 0 0-5.286-1.44h-.087c-5.133 0-9.337 3.56-9.37 7.95-.034 4.42 4.154 8.05 9.334 8.09h.085c4.734 0 8.669-3.03 9.282-6.94.051-.18.086-.36.088-.55zM10.066 42.72h-.055c-2.87-.02-5.281-1.83-5.265-3.96.016-2.14 2.381-3.88 5.27-3.88h.055c2.871.03 5.283 1.84 5.267 3.97-.017 2.13-2.382 3.87-5.272 3.87zm9.557-28.05l.038-4.92 22.852-4.89-.037 4.92zm17.401 22.29h-.054c-2.87-.02-5.281-1.84-5.265-3.96.016-2.14 2.38-3.88 5.27-3.88h.055c2.872.02 5.283 1.84 5.267 3.96-.016 2.14-2.381 3.88-5.273 3.88z"/>
    </symbol>
    <symbol id="icon-icon-star" viewBox="0 0 50 48">
       <title> Icon-Star </title> <path d="M39.25 47.08c-.41 0-.82-.11-1.18-.35L25.4 38.5l-12.68 8.23c-.76.49-1.74.47-2.47-.07a2.198 2.198 0 0 1-.8-2.34l3.97-14.1L1.57 20.18c-.67-.57-.93-1.49-.66-2.33a2.19 2.19 0 0 1 1.91-1.49l14.21-1.02 6.39-14.02C23.78.55 24.55.05 25.4.05c.84 0 1.61.5 1.97 1.27l6.39 14.02 14.21 1.02c.88.07 1.64.66 1.91 1.49.27.84.01 1.76-.66 2.33L37.37 30.22l3.97 14.1c.24.87-.07 1.8-.8 2.34-.38.28-.83.42-1.29.42zM25.4 33.75c.41 0 .82.11 1.17.35l9.04 5.86-2.79-9.91c-.23-.81.04-1.69.68-2.24l8.86-7.5-10.19-.74c-.79-.05-1.49-.54-1.82-1.26L25.4 7.44l-4.96 10.87c-.33.72-1.03 1.21-1.82 1.26l-10.19.74 8.86 7.5c.64.55.91 1.43.68 2.24l-2.79 9.91 9.04-5.86c.35-.24.76-.35 1.18-.35z"/>
    </symbol>
    <symbol id="icon-iphone" viewBox="0 0 18.687 29.88">
        <path id="iPhone_potrait" data-name="iPhone potrait" class="cls-1" d="M233.723 4588.82h14.927a1.87 1.87 0 0 1 1.866 1.87v26.12a1.87 1.87 0 0 1-1.866 1.87h-14.927a1.87 1.87 0 0 1-1.866-1.87v-26.12a1.87 1.87 0 0 1 1.866-1.87zm3.265 1.87h8.4a.465.465 0 1 1 0 .93h-8.4a.465.465 0 1 1 0-.93zm-3.265 2.8h14.927v21.46h-14.927v-21.46zm7.464 22.39a.93.93 0 1 1-.933.93.934.934 0 0 1 .933-.93z" transform="translate(-231.844 -4588.81)"/>
    </symbol>
    <symbol id="icon-location" viewBox="0 0 22.375 29.88">
        <path id="location" class="cls-1" d="M241.18 4508.51a11.192 11.192 0 0 1 11.195 11.19c0 6.19-11.195 18.66-11.195 18.66s-11.195-12.47-11.195-18.66a11.192 11.192 0 0 1 11.195-11.19zm0 4.66a5.6 5.6 0 1 1-5.6 5.6 5.6 5.6 0 0 1 5.6-5.6z" transform="translate(-230 -4508.5)"/>
    </symbol>
    <symbol id="icon-media" viewBox="0 0 16.593 20.13">
        <path id="Media_Icon" data-name="Media Icon" class="cls-1" d="M549.435 4688.59c0 1.35.089 2.25 1.263 1.57l4.912-3.06c1.173-.69 3.1-1.8 4.273-2.49l5.273-3.06a1.314 1.314 0 0 0 .022-2.48l-5.218-3.07c-1.174-.68-3.007-1.8-4.181-2.48l-5.084-3.06c-1.173-.69-1.26.21-1.26 1.57v16.56z" transform="translate(-549.438 -4670.25)"/>
    </symbol>
    <symbol id="icon-news" viewBox="0 0 24.969 20">
        <path id="News_Icon" data-name="News Icon" class="cls-1" d="M547.74 4508.23h19.974a2.5 2.5 0 0 1 2.5 2.5v14.98a2.5 2.5 0 0 1-2.5 2.5H547.74a2.5 2.5 0 0 1-2.5-2.5v-14.98a2.5 2.5 0 0 1 2.5-2.5zm12.484 9.16h7.49a.83.83 0 1 1 0 1.66h-7.49a.83.83 0 1 1 0-1.66zm0-3.33h7.49a.83.83 0 1 1 0 1.66h-7.49a.83.83 0 1 1 0-1.66zm0 6.66h7.49a.83.83 0 1 1 0 1.66h-7.49a.83.83 0 1 1 0-1.66zm-12.484-7.5h8.323a.839.839 0 0 1 .832.84v8.32a.83.83 0 0 1-.832.83h-8.323a.83.83 0 0 1-.832-.83v-8.32a.838.838 0 0 1 .832-.84z" transform="translate(-545.25 -4508.22)"/>
    </symbol>
    <symbol id="icon-photo" viewBox="0 0 25.219 22.06">
        <path id="Photo_Icon" data-name="Photo Icon" class="cls-1" d="M546.578 4548.27h22.055a1.571 1.571 0 0 1 1.575 1.57v18.9a1.579 1.579 0 0 1-1.575 1.58h-22.055a1.58 1.58 0 0 1-1.575-1.58v-18.9a1.571 1.571 0 0 1 1.575-1.57zm2.363 2.36h17.329a1.571 1.571 0 0 1 1.575 1.57v14.18a1.579 1.579 0 0 1-1.575 1.58h-17.329a1.579 1.579 0 0 1-1.575-1.58v-14.18a1.571 1.571 0 0 1 1.575-1.57zm3.545 1.57a2.76 2.76 0 1 1-2.757 2.76 2.761 2.761 0 0 1 2.757-2.76zm-4.332 14.18l4.726-6.3 3.15 3.94h.788l5.514-11.03 4.726 13.39h-18.9z" transform="translate(-545 -4548.25)"/>
    </symbol>
    <symbol id="icon-twitter" viewBox="0 0 23.468 17.37">
        <path id="Twitter_Icon" data-name="Twitter Icon" class="cls-1" d="M880.168 4520.33s3.165 1.45 4.48 1.45a4.1 4.1 0 0 0 4.16-1.48.592.592 0 0 0-.144-.88s-5.395-1.59-5.012-2.52c0 0-.024-.53.669-.41 0 0 .781-.77.4-1.01 0 0-.6-.78-.119-.83 0 0 1.219.33 1.673.45 0 0 .311-.11.024-.32a1.7 1.7 0 0 1-.7-.74s.2-.46.964-.13c0 0 .239-.05.024-.29 0 0-.551-.38-.24-.69 0 0 .876-.63 3.1 2.07 0 0 .406.55.454.02 0 0 1.612-6.86 4.218-7.32a1.408 1.408 0 0 0 1-.09 1.244 1.244 0 0 1 .964-.05.376.376 0 0 0 .526.14s1.028-.4.717.26a5.453 5.453 0 0 1-1.418.98c-.359.02-.287.36.024.4 0 0 4.375.39 4.375 3.59 0 0 .251.76 1.064-.03a9.06 9.06 0 0 1 1.542-.82s.334-.21.287.29a5.849 5.849 0 0 1-1.793 1.96s-.55.7.239.55a5.02 5.02 0 0 0 1.126-.37s.932-.46.5.36a12.041 12.041 0 0 1-2.393 1.27.374.374 0 0 0-.287.34s-.263 8.36-11.213 8.36a11.95 11.95 0 0 1-9.069-3.89s-.691-.74-.142-.62z" transform="translate(-879.938 -4507.47)"/>
    </symbol></svg>
